<?xml version="1.0" standalone="no"?>
<!DOCTYPE svg PUBLIC "-//W3C//DTD SVG 20010904//EN"
 "http://www.w3.org/TR/2001/REC-SVG-20010904/DTD/svg10.dtd">
<svg version="1.0" xmlns="http://www.w3.org/2000/svg"
 width="814.000000pt" height="978.000000pt" viewBox="0 0 814.000000 978.000000"
 preserveAspectRatio="xMidYMid meet">
<metadata>
Created by potrace 1.12, written by Peter Selinger 2001-2015
</metadata>
<g transform="translate(0.000000,978.000000) scale(0.100000,-0.100000)"
fill="#d5ced9" stroke="none">
<path d="M4275 8907 c-132 -64 -191 -184 -266 -537 -11 -52 -25 -117 -31 -145
-11 -52 -12 -57 -47 -240 -31 -154 -42 -213 -51 -265 -4 -25 -12 -65 -18 -90
-11 -46 -23 -108 -42 -217 -36 -216 -45 -276 -60 -373 -7 -41 -16 -95 -21
-120 -5 -25 -34 -196 -64 -380 -97 -594 -116 -688 -162 -778 -33 -66 -65 -85
-109 -66 -68 28 -127 174 -163 404 -7 41 -19 113 -27 160 -21 127 -50 316 -73
490 -12 85 -31 209 -41 275 -11 66 -34 221 -51 345 -16 124 -41 290 -55 370
-14 80 -29 168 -34 195 -33 191 -74 345 -106 405 -87 161 -196 234 -295 201
-51 -16 -119 -88 -149 -156 -44 -99 -53 -175 -46 -410 6 -251 17 -389 56 -720
27 -231 41 -385 65 -710 23 -319 23 -1157 0 -1475 -21 -295 -29 -357 -61 -495
-7 -28 -59 -115 -70 -115 -3 0 -37 22 -77 49 -72 49 -231 202 -556 534 -96 97
-178 177 -182 177 -5 0 -37 23 -71 50 -63 51 -221 135 -287 153 -105 28 -354
28 -440 0 -79 -25 -178 -99 -211 -157 -65 -112 -32 -152 259 -325 93 -55 270
-209 473 -413 155 -155 233 -255 302 -388 64 -122 137 -240 206 -329 117 -154
162 -230 390 -671 79 -151 160 -301 182 -333 21 -32 38 -60 38 -63 0 -7 100
-144 148 -204 24 -30 115 -128 203 -217 221 -226 264 -299 275 -468 3 -49 0
-157 -6 -240 -35 -428 -21 -591 53 -639 29 -19 34 -19 1084 -18 l892 2 11 21
c6 11 17 44 25 72 29 115 36 216 33 482 -4 365 -8 351 145 578 32 48 71 115
87 149 33 74 103 297 120 383 6 33 15 78 20 100 8 39 17 93 40 240 6 39 15 95
20 125 5 30 14 87 20 125 6 39 15 95 20 125 5 30 14 91 20 135 33 231 57 390
70 450 5 22 14 67 20 100 49 248 125 475 217 645 26 47 62 114 81 150 20 36
46 82 59 102 13 21 23 40 23 43 0 4 14 26 30 50 17 24 30 46 30 49 0 2 35 62
78 133 115 189 253 441 328 599 36 76 115 239 175 362 137 281 172 380 173
484 1 88 -14 118 -78 151 -77 40 -166 18 -257 -62 -58 -51 -179 -209 -249
-327 -68 -113 -178 -292 -199 -323 -84 -125 -134 -195 -219 -310 -202 -271
-423 -492 -584 -584 -74 -43 -91 -35 -107 49 -18 91 18 270 117 589 113 361
168 551 238 820 43 164 66 248 99 355 32 104 44 145 55 190 4 19 25 98 44 175
78 302 116 648 86 790 -21 103 -87 146 -198 130 -41 -6 -55 -15 -107 -69 -117
-121 -175 -246 -355 -776 -21 -63 -57 -176 -80 -250 -23 -74 -45 -146 -50
-160 -5 -14 -30 -92 -56 -175 -104 -332 -231 -631 -438 -1031 -90 -175 -136
-244 -162 -244 -22 0 -53 77 -69 172 -28 159 -13 424 45 798 5 36 15 99 21
140 6 41 13 79 16 84 4 5 10 41 15 80 29 249 45 369 78 596 62 419 86 652 96
929 5 115 3 181 -6 220 -56 252 -160 353 -295 288z m155 -67 c21 -23 45 -62
55 -88 9 -26 20 -56 25 -67 28 -66 31 -222 11 -490 -17 -232 -34 -376 -81
-695 -20 -138 -31 -218 -39 -286 -4 -39 -11 -76 -15 -82 -3 -5 -10 -50 -16
-99 -5 -48 -14 -117 -19 -153 -5 -36 -14 -99 -20 -140 -6 -41 -15 -104 -21
-140 -66 -419 -81 -706 -46 -860 25 -110 59 -180 88 -180 13 0 28 -4 34 -9 5
-5 41 -20 79 -34 238 -85 534 -208 567 -234 7 -6 23 -14 35 -17 13 -4 46 -34
74 -67 46 -53 56 -59 90 -59 97 0 420 287 626 555 123 161 305 429 422 624
115 191 196 303 277 384 53 54 74 67 112 76 89 19 160 -15 163 -78 3 -44 -2
-94 -13 -136 -13 -52 -100 -253 -143 -330 -18 -33 -44 -87 -58 -120 -95 -227
-326 -664 -505 -953 -29 -46 -52 -85 -52 -87 0 -2 -39 -70 -86 -152 -104 -179
-165 -299 -189 -373 -10 -30 -24 -64 -31 -76 -8 -11 -25 -58 -39 -105 -14 -46
-32 -105 -40 -130 -8 -26 -15 -60 -15 -75 0 -16 -7 -49 -16 -73 -17 -49 -40
-183 -73 -416 -33 -234 -46 -324 -61 -417 -6 -32 -14 -84 -20 -115 -5 -32 -14
-87 -19 -123 -40 -256 -67 -387 -116 -553 -46 -158 -94 -254 -206 -411 -63
-90 -83 -146 -99 -282 -10 -87 -11 -148 -2 -280 9 -136 8 -191 -3 -284 -13
-105 -28 -187 -37 -195 -5 -4 -1912 -12 -1926 -7 -22 7 -40 56 -52 140 -9 65
-8 129 6 314 9 130 14 293 12 368 -7 215 -33 262 -284 521 -246 254 -351 399
-504 693 -31 61 -93 181 -137 266 -143 275 -232 426 -303 510 -61 74 -135 188
-196 305 -92 175 -153 255 -349 451 -275 276 -408 384 -570 466 -53 27 -142
103 -150 128 -17 54 46 135 142 183 50 25 146 52 223 63 78 10 243 -28 367
-86 143 -67 245 -154 562 -480 349 -358 442 -432 521 -415 33 7 52 27 73 75
49 109 68 226 88 545 18 268 18 1213 1 1480 -16 239 -39 497 -53 597 -36 252
-64 579 -75 858 -8 201 11 328 62 410 29 48 86 97 122 105 70 15 159 -59 221
-187 40 -80 54 -125 80 -253 7 -33 16 -78 21 -100 13 -58 44 -244 60 -350 5
-38 17 -113 25 -165 8 -52 24 -167 35 -255 12 -88 25 -193 30 -232 6 -40 15
-108 20 -150 6 -43 17 -112 25 -153 13 -64 33 -193 85 -535 34 -220 85 -370
146 -432 64 -63 112 -68 172 -18 50 42 104 202 137 400 69 423 87 535 95 570
5 22 14 74 20 115 12 77 23 146 40 248 5 31 14 89 20 127 27 172 32 202 41
238 10 37 19 85 39 207 17 99 30 174 39 220 5 25 14 71 20 103 6 31 15 81 21
110 5 28 14 72 20 97 6 25 15 68 20 95 5 28 14 68 19 90 81 369 119 470 205
539 49 40 60 44 110 45 33 1 45 -5 76 -39z"/>
</g>
</svg>
