<?xml version="1.0" standalone="no"?>
<!DOCTYPE svg PUBLIC "-//W3C//DTD SVG 20010904//EN"
 "http://www.w3.org/TR/2001/REC-SVG-20010904/DTD/svg10.dtd">
<svg version="1.0" xmlns="http://www.w3.org/2000/svg" fill="#d5ced9"
 width="814.000000pt" height="978.000000pt" viewBox="0 0 814.000000 978.000000"
 preserveAspectRatio="xMidYMid meet">
<metadata>
Created by potrace 1.12, written by Peter Selinger 2001-2015
</metadata>
<g transform="translate(0.000000,978.000000) scale(0.100000,-0.100000)"
fill="#d5ced9" stroke="none">
<path d="M4280 8910 c-58 -27 -125 -93 -156 -152 -49 -96 -84 -200 -99 -295
-8 -54 -24 -138 -35 -188 -12 -49 -25 -110 -29 -135 -5 -25 -19 -94 -31 -155
-30 -156 -41 -214 -50 -265 -4 -25 -12 -65 -18 -90 -11 -46 -23 -108 -42 -217
-36 -219 -46 -278 -60 -373 -6 -41 -15 -93 -20 -115 -5 -22 -27 -155 -49 -295
-113 -709 -144 -840 -211 -910 -36 -38 -39 -39 -70 -27 -72 27 -132 171 -169
407 -7 41 -19 113 -27 160 -21 127 -50 316 -73 490 -12 85 -31 209 -41 275
-11 66 -34 221 -51 345 -16 124 -41 290 -55 370 -14 80 -29 168 -34 195 -33
191 -74 345 -106 405 -87 161 -196 234 -295 201 -51 -16 -119 -88 -149 -156
-44 -99 -53 -175 -46 -410 6 -251 17 -389 56 -720 27 -231 41 -385 65 -710 23
-319 23 -1157 0 -1475 -21 -295 -29 -357 -61 -495 -7 -28 -59 -115 -70 -115
-3 0 -37 22 -77 49 -72 49 -231 202 -556 534 -96 97 -178 177 -182 177 -5 0
-37 23 -71 50 -63 51 -221 135 -287 153 -105 28 -354 28 -440 0 -79 -25 -178
-99 -211 -157 -65 -112 -32 -152 259 -325 93 -55 270 -209 473 -413 155 -155
233 -255 302 -388 64 -122 137 -240 206 -329 117 -154 162 -230 390 -671 79
-151 160 -301 182 -333 21 -32 38 -60 38 -63 0 -7 100 -144 148 -204 24 -30
115 -128 203 -217 221 -226 264 -299 275 -468 3 -49 0 -157 -6 -240 -35 -428
-21 -591 53 -639 29 -19 34 -19 1084 -18 l892 2 11 21 c6 11 17 44 25 72 29
115 36 216 33 482 -4 365 -8 351 145 578 32 48 71 115 87 149 33 74 103 297
120 383 6 33 15 78 20 100 8 39 17 93 40 240 6 39 15 95 20 125 5 30 14 87 20
125 6 39 15 95 20 125 5 30 14 91 20 135 33 231 57 390 70 450 5 22 14 67 20
100 49 248 125 475 217 645 26 47 62 114 81 150 20 36 46 82 59 102 13 21 23
40 23 43 0 4 14 26 30 50 17 24 30 46 30 49 0 2 35 62 78 133 115 189 253 441
328 599 36 76 115 239 175 362 137 281 172 380 173 484 1 88 -14 118 -78 151
-77 40 -166 18 -257 -62 -58 -51 -179 -209 -249 -327 -68 -113 -178 -292 -199
-323 -84 -125 -134 -195 -219 -310 -205 -276 -428 -498 -589 -587 -64 -35 -81
-28 -101 37 -23 80 14 276 117 606 106 340 147 480 206 708 22 84 36 134 84
310 11 39 32 108 46 155 32 104 44 145 55 190 4 19 25 98 44 175 78 302 116
648 86 790 -21 103 -87 146 -198 130 -41 -6 -55 -15 -107 -69 -117 -121 -175
-246 -355 -776 -21 -63 -57 -176 -80 -250 -23 -74 -45 -146 -50 -160 -5 -14
-30 -92 -56 -175 -104 -332 -231 -631 -438 -1031 -88 -172 -136 -244 -161
-244 -38 0 -85 189 -85 340 0 148 23 390 60 630 6 36 15 99 21 140 6 41 13 79
16 84 4 5 10 41 15 80 29 249 45 369 78 596 62 419 86 652 96 929 5 115 3 181
-6 220 -55 247 -159 351 -290 291z m-1627 -414 c54 -22 113 -89 156 -178 40
-80 54 -125 80 -253 7 -33 16 -78 21 -100 13 -58 44 -244 60 -350 5 -38 17
-113 25 -165 8 -52 24 -167 35 -255 12 -88 25 -193 30 -232 6 -40 15 -108 20
-150 6 -43 17 -112 25 -153 13 -64 33 -193 85 -535 29 -184 79 -351 125 -411
44 -57 81 -73 160 -69 39 2 98 10 133 16 52 11 87 10 215 -4 231 -27 378 -55
435 -86 11 -6 51 -11 89 -11 l68 0 40 55 c87 121 294 533 411 820 37 92 165
466 223 655 60 194 229 685 273 797 99 244 205 383 294 383 49 0 101 -35 116
-78 27 -78 9 -410 -32 -572 -5 -19 -14 -62 -21 -95 -16 -79 -59 -245 -110
-425 -67 -240 -114 -410 -144 -525 -13 -49 -49 -178 -80 -285 -55 -189 -78
-266 -170 -565 -60 -196 -74 -261 -81 -363 -8 -109 -1 -152 32 -192 42 -50 83
-43 196 32 123 82 363 321 495 493 123 161 305 429 422 624 115 191 196 303
277 384 53 54 74 67 112 76 89 19 160 -15 163 -78 3 -44 -2 -94 -13 -136 -13
-52 -100 -253 -143 -330 -18 -33 -44 -87 -58 -120 -95 -227 -326 -664 -505
-953 -29 -46 -52 -85 -52 -87 0 -2 -39 -70 -86 -152 -104 -179 -165 -299 -189
-373 -10 -30 -24 -64 -31 -76 -8 -11 -25 -58 -39 -105 -14 -46 -32 -105 -40
-130 -8 -26 -15 -60 -15 -75 0 -16 -7 -49 -16 -73 -17 -49 -40 -183 -73 -416
-33 -234 -46 -324 -61 -417 -6 -32 -14 -84 -20 -115 -5 -32 -14 -87 -19 -123
-40 -256 -67 -387 -116 -553 -46 -158 -94 -254 -206 -411 -63 -90 -83 -146
-99 -282 -10 -87 -11 -148 -2 -280 9 -136 8 -191 -3 -284 -13 -105 -28 -187
-37 -195 -5 -4 -1912 -12 -1926 -7 -22 7 -40 56 -52 140 -9 65 -8 129 6 314 9
130 14 293 12 368 -7 215 -33 262 -284 521 -246 254 -351 399 -504 693 -31 61
-93 181 -137 266 -143 275 -232 426 -303 510 -61 74 -135 188 -196 305 -92
175 -153 255 -349 451 -275 276 -408 384 -570 466 -53 27 -142 103 -150 128
-17 54 46 135 142 183 50 25 146 52 223 63 78 10 243 -28 367 -86 143 -67 245
-154 562 -480 349 -358 442 -432 521 -415 33 7 52 27 73 75 49 109 68 226 88
545 18 268 18 1213 1 1480 -16 239 -39 497 -53 597 -36 252 -64 579 -75 858
-10 253 22 387 112 472 50 46 87 56 137 34z"/>
</g>
</svg>
